<svg width="400" height="400" viewBox="0 0 400 400" fill="none" xmlns="http://www.w3.org/2000/svg">
  <path d="M200 0C310.457 0 400 89.5431 400 200C400 310.457 310.457 400 200 400C89.5431 400 0 310.457 0 200C0 89.5431 89.5431 0 200 0Z" fill="#1a1a1a" fill-opacity="0.05"/>
  <path d="M200 50C282.843 50 350 117.157 350 200C350 282.843 282.843 350 200 350C117.157 350 50 282.843 50 200C50 117.157 117.157 50 200 50Z" stroke="#1a1a1a" stroke-width="2" stroke-opacity="0.1"/>
  <path d="M200 100C255.228 100 300 144.772 300 200C300 255.228 255.228 300 200 300C144.772 300 100 255.228 100 200C100 144.772 144.772 100 200 100Z" stroke="#1a1a1a" stroke-width="2" stroke-opacity="0.15"/>
</svg>