<svg version="1.1" id="Layer_1" xmlns="http://www.w3.org/2000/svg" xmlns:xlink="http://www.w3.org/1999/xlink" x="0px" y="0px"
	 width="100%" viewBox="0 0 1024 1024" enable-background="new 0 0 1024 1024" xml:space="preserve">
<path fill="#000000" opacity="1.000000" stroke="none" 
	d="
M433.849121,701.310120 
	C413.029602,689.072205 401.800751,671.476196 402.810944,647.364685 
	C403.529541,630.213623 411.924927,616.217590 423.844513,604.442200 
	C427.668518,600.664429 427.745728,597.712341 425.820557,593.159668 
	C401.962769,536.741943 378.262421,480.257660 354.548096,423.779327 
	C348.497589,409.369293 348.540375,409.350403 333.001984,409.262115 
	C320.337250,409.190125 307.670837,409.224579 295.008362,409.016693 
	C285.207367,408.855774 280.320312,404.490845 279.626648,396.249359 
	C278.692810,385.153595 284.962921,380.243774 294.469788,380.504181 
	C313.786682,381.033295 333.128357,380.852295 352.457153,380.673126 
	C362.852631,380.576813 369.582489,384.805847 373.591339,394.671509 
	C382.236725,415.947754 391.602234,436.930481 400.375488,458.156372 
	C402.311157,462.839508 405.105469,463.959839 409.864197,463.953217 
	C502.351318,463.825073 594.838684,463.858856 687.325989,463.859650 
	C688.659058,463.859680 689.994690,463.807739 691.324707,463.872345 
	C703.474976,464.462616 709.310486,472.727509 705.621216,484.377991 
	C702.509155,494.206024 699.180847,503.966187 695.897644,513.739380 
	C682.387573,553.955994 668.872070,594.170898 655.309082,634.369690 
	C654.249207,637.511108 653.061523,640.661194 651.488281,643.566284 
	C648.754944,648.613403 644.476562,651.390015 638.533020,651.387756 
	C579.374390,651.365784 520.215820,651.369629 461.057220,651.373352 
	C453.916473,651.373840 449.271820,647.575317 445.968201,641.630493 
	C443.482941,637.158264 442.324829,632.022400 438.911011,627.136169 
	C433.800690,632.513550 430.778198,638.426147 429.385223,645.156067 
	C425.476227,664.041626 441.802460,679.725525 458.007690,682.658020 
	C460.441833,683.098511 461.985107,682.147461 463.498016,680.214905 
	C478.475525,661.082947 505.258820,660.960510 520.272888,679.969482 
	C521.917969,682.052368 523.720825,682.779053 526.235413,682.772217 
	C544.399475,682.722656 562.564514,682.656860 580.727112,682.825378 
	C584.255127,682.858154 586.067749,681.047729 588.119446,678.705017 
	C597.599182,667.880859 609.524292,663.587402 623.554810,667.012939 
	C636.639099,670.207458 645.579041,678.369263 649.481873,691.513733 
	C654.582092,708.690979 645.282776,727.418884 628.501282,733.922424 
	C611.229065,740.616150 591.754578,733.206482 584.232971,716.544434 
	C582.224426,712.094971 579.790405,710.799805 575.206238,710.875732 
	C560.379028,711.121582 545.542358,711.132324 530.716125,710.860352 
	C527.093933,710.793884 525.603333,711.891541 524.159729,715.133728 
	C514.896118,735.938660 489.560242,742.871887 471.310303,729.767944 
	C465.899811,725.883057 461.693390,720.893311 459.657959,714.537292 
	C458.477417,710.850830 456.375488,709.329163 452.767365,708.571594 
	C446.230682,707.199158 440.011719,704.793579 433.849121,701.310120 
M647.274902,565.902283 
	C654.533142,544.286316 661.794556,522.671448 669.047607,501.053772 
	C671.146912,494.796997 670.819214,494.297699 664.095642,494.296722 
	C584.435364,494.284973 504.775055,494.286926 425.114746,494.308167 
	C418.323669,494.309967 417.003510,496.292633 419.624939,502.573181 
	C435.594940,540.835022 451.623810,579.072266 467.555267,617.350159 
	C468.898743,620.578064 470.856873,621.796326 474.381531,621.789917 
	C524.044067,621.699585 573.706848,621.696472 623.369385,621.799072 
	C627.210083,621.807007 628.945129,620.384766 630.118530,616.791870 
	C635.595032,600.023987 641.335571,583.342224 647.274902,565.902283 
M612.279785,691.408691 
	C606.661987,694.152344 604.298584,698.417480 605.446777,703.739807 
	C606.325195,707.811523 610.531006,711.405640 614.697205,711.644836 
	C619.426880,711.916382 623.854797,708.796997 625.256409,704.108643 
	C627.403015,696.928162 621.528137,689.425903 612.279785,691.408691 
M485.811188,693.181946 
	C481.692291,697.728760 480.968658,702.984436 483.886658,707.159851 
	C486.784027,711.305786 491.711945,712.747559 496.199219,710.762146 
	C501.687622,708.333801 504.044037,702.397949 501.627441,697.088623 
	C498.984467,691.281982 493.296478,689.642761 485.811188,693.181946 
z"/>
<path fill="#000000" opacity="1.000000" stroke="none" 
	d="
M614.978516,344.978699 
	C623.400391,337.885132 622.901733,327.889587 624.660767,318.727020 
	C624.952637,317.206635 624.425598,315.843414 623.608154,314.482910 
	C620.468201,309.257202 620.709351,303.907623 624.037781,298.977142 
	C627.418091,293.969818 632.647766,293.824249 637.956238,294.865906 
	C647.401550,296.719421 656.800537,298.814972 666.261841,300.578857 
	C671.171265,301.494141 674.752319,303.935181 675.928589,308.748718 
	C677.160095,313.788452 676.698364,318.801544 672.393005,322.512360 
	C670.044739,324.536377 668.950256,326.814056 668.049316,329.903595 
	C664.161133,343.236481 666.137085,355.713867 671.781311,368.038483 
	C673.712891,372.256226 674.754761,376.873260 676.543091,381.166229 
	C681.565186,393.222168 681.244019,405.447784 678.175842,417.840027 
	C675.822510,427.345001 673.438049,436.844391 671.274719,446.393219 
	C670.443665,450.061523 668.767456,451.582001 664.814636,451.463196 
	C655.660461,451.188049 646.492249,451.398041 637.329834,451.368683 
	C635.695923,451.363434 633.980530,451.664764 632.082703,450.339722 
	C633.095703,445.194397 634.465454,439.900024 635.124329,434.518616 
	C636.238220,425.421204 636.733582,416.257507 634.008240,407.304657 
	C628.133362,388.005615 614.005310,378.714020 595.026611,375.386200 
	C593.725769,375.158112 592.406433,375.032562 591.110107,374.784180 
	C590.857483,374.735809 590.671692,374.338531 589.952698,373.554016 
	C598.183899,364.157410 606.466003,354.702759 614.978516,344.978699 
z"/>
<path fill="#000000" opacity="1.000000" stroke="none" 
	d="
M502.343079,411.735260 
	C506.592194,398.029816 517.643188,394.347565 529.540588,391.647980 
	C535.891907,390.206757 542.401672,391.126648 549.100525,390.307556 
	C548.827271,386.472321 546.311401,384.316010 544.616760,381.808716 
	C542.133911,378.135132 540.341919,374.385742 540.645752,369.763428 
	C541.156616,361.992065 548.039246,357.138855 555.392212,359.597473 
	C561.965820,361.795593 566.429871,366.280151 568.921448,372.665314 
	C569.881897,375.126801 570.513733,377.737762 571.081543,380.327484 
	C573.320251,390.539368 573.289001,390.644562 583.913574,390.619904 
	C590.143372,390.605438 596.146851,391.459351 601.979736,393.696411 
	C613.741882,398.207550 619.273743,407.157349 620.256165,419.288910 
	C621.062195,429.241669 618.755676,438.758484 615.938354,448.201172 
	C614.981140,451.409698 612.651550,451.397369 610.054138,451.392212 
	C593.075256,451.358612 576.096252,451.372772 559.117249,451.374237 
	C543.636414,451.375580 528.150513,451.157990 512.677551,451.509033 
	C507.511871,451.626251 505.338043,449.818817 504.150940,444.961365 
	C501.493561,434.087860 498.826172,423.306152 502.343079,411.735260 
z"/>
<path fill="#000000" opacity="1.000000" stroke="none" 
	d="
M440.342041,446.657959 
	C436.422974,435.840942 431.146667,425.937042 429.589020,414.687164 
	C427.364990,398.624146 433.965240,386.972351 446.875549,378.205170 
	C448.483948,377.112946 450.531525,376.516479 451.115906,374.309448 
	C450.363342,372.308868 448.558533,371.805786 446.881622,371.091309 
	C437.085083,366.917572 427.255615,362.817078 417.525024,358.494263 
	C411.986176,356.033661 409.997101,351.226746 412.090698,346.359497 
	C413.856720,342.253662 418.744904,340.455109 424.106659,342.286926 
	C428.924469,343.932831 433.618774,345.940247 438.854462,347.977661 
	C438.954651,343.699005 437.311310,340.561432 436.229187,337.334473 
	C433.743652,329.922577 431.028442,322.588043 428.498962,315.190460 
	C426.653046,309.792053 428.723389,305.343231 433.784943,303.488647 
	C438.871857,301.624786 443.164673,303.696869 445.139832,309.226166 
	C448.995117,320.018738 452.721283,330.857422 456.737793,342.355011 
	C459.694275,338.091827 459.904724,333.537811 461.405518,329.490997 
	C463.553772,323.698303 468.485596,321.349548 474.067719,323.742096 
	C478.432190,325.612762 479.983887,328.752319 478.648193,333.361511 
	C475.826630,343.098145 472.907623,352.806610 470.080109,362.541534 
	C468.372009,368.422333 468.957550,369.028168 474.934814,369.208679 
	C486.831512,369.567963 496.506866,374.633789 504.947693,383.469360 
	C480.197296,401.333984 483.437622,425.522491 488.944489,449.993591 
	C487.560181,451.849823 485.769806,451.393036 484.199524,451.397614 
	C471.872498,451.433685 459.543915,451.297302 447.219025,451.458923 
	C443.710449,451.504944 441.451935,450.457642 440.342041,446.657959 
z"/>
<path fill="#000000" opacity="1.000000" stroke="none" 
	d="
M613.931274,548.285156 
	C571.492554,548.286987 529.543518,548.283325 487.594421,548.300903 
	C484.588196,548.302124 481.609344,548.255615 478.710297,547.314453 
	C471.713867,545.043396 467.793365,538.605042 468.723602,530.869324 
	C469.546600,524.025452 475.091217,519.079468 482.397491,518.678284 
	C482.895660,518.650818 483.396027,518.659363 483.895386,518.659363 
	C529.007263,518.660034 574.119202,518.633972 619.231079,518.683716 
	C629.501770,518.695068 634.897461,524.509399 634.438965,534.710083 
	C634.107971,542.073853 629.057739,547.152405 620.905212,548.136108 
	C618.768860,548.393921 616.583679,548.246338 613.931274,548.285156 
z"/>
<path fill="#000000" opacity="1.000000" stroke="none" 
	d="
M596.949768,600.133850 
	C566.820801,600.137146 537.183594,600.130005 507.546387,600.153320 
	C504.539429,600.155640 501.556091,600.062866 498.622833,599.347961 
	C492.359924,597.821472 487.851593,592.133362 487.661713,585.531433 
	C487.453033,578.275635 491.274475,572.653076 497.970612,570.905273 
	C500.509674,570.242554 503.233856,570.055969 505.874420,570.050964 
	C536.843506,569.992126 567.812744,569.994751 598.781921,570.030823 
	C601.600525,570.034058 604.444092,570.203430 607.232361,570.601624 
	C614.821228,571.685425 619.675659,577.295532 619.839783,584.935913 
	C619.990356,591.946411 615.047852,597.841980 607.877502,599.485291 
	C604.406921,600.280579 600.927368,600.054932 596.949768,600.133850 
z"/>
</svg>